<?xml version="1.0" standalone="no"?><!DOCTYPE svg PUBLIC "-//W3C//DTD SVG 1.1//EN" "http://www.w3.org/Graphics/SVG/1.1/DTD/svg11.dtd"><svg t="1529986474222" class="icon" style="" viewBox="0 0 1024 1024" version="1.1" xmlns="http://www.w3.org/2000/svg" p-id="6014" xmlns:xlink="http://www.w3.org/1999/xlink" width="48" height="48"><defs><style type="text/css"></style></defs><path d="M957.1 463.9c4.7 8.1 1.6 18.7-7.1 23.8L902 516c-8.7 5.1-19.5 2.7-24.3-5.4L748.5 290.9c-4.7-8.1-1.6-18.7 7.1-23.8l48-28.2c8.7-5.1 19.5-2.7 24.3 5.4l129.2 219.6z m-805.4 52c-1.8 4.5-5.2 8.1-9.7 10.1-4.4 1.9-9.4 2-13.9 0.3L76.3 506c-9.4-3.7-14-14.2-10.3-23.6l99.7-255.3c3.7-9.4 14.2-14 23.6-10.3l51.8 20.2c9.4 3.7 14 14.2 10.4 23.6l-99.8 255.3z m593.4-215.3L873 517.4 772.9 621.8 554.5 386.2s-11.6-17.1-24-8.5c-12.4 8.6-132.3 70.7-132.3 70.7s-38.5 17.1-51.4 2.1c-12.8-15-19.3-45 0-64.3 19.3-19.2 160.7-107.7 190.6-116.5 24.5-7.2 60.7-17.4 93.1 10.8 30.9 27 89.2 29.4 114.6 20.1zM519.5 798.1c-12.6 13.3-33.6 13.8-46.9 1.2-13.3-12.6-13.8-33.6-1.2-46.9l30.2-31.8c12.6-13.3 33.6-13.8 46.9-1.2 13.3 12.6 13.8 33.6 1.2 46.9l-30.2 31.8zM297.3 661.2c-11.4 12-31.1 11.9-43.9-0.3-12.8-12.2-13.9-31.8-2.5-43.8l27.4-28.8c11.4-12 31.1-11.9 43.9 0.3 12.8 12.2 13.9 31.8 2.5 43.8l-27.4 28.8zM439 759.5c-11.1 11.7-30.7 11.2-43.8-1.2-13.1-12.4-14.7-31.9-3.6-43.6l63.6-67.1c11.1-11.7 30.7-11.2 43.8 1.2 13.1 12.4 14.7 31.9 3.6 43.6L439 759.5z m-66.1-51.7c-9.7 10.3-28 8.7-40.9-3.5-12.9-12.2-15.4-30.4-5.7-40.6l55.7-58.8c9.7-10.3 28-8.7 40.9 3.5 12.9 12.2 15.4 30.4 5.7 40.6l-55.7 58.8z m0 0" p-id="6015"></path><path d="M258.9 586l-18.1 18.9-72.8-77.4s-7.5-2.8 0-25.4c7.5-22.6 88.8-229.3 88.8-229.3s11.8-10.7 20.3-4.3c8.6 6.4 25.3 32.1 43.2 27.8 17.8-4.3 92.8-56.7 119.5-51.4 26.8 5.3 53.5 24.6 53.5 24.6l-22.3 14s-22.7-13.9-36.5-12.8c-13.8 1.1-101.2 58.3-118.7 56.2-17.5-2.1-45-20.9-45-20.9S191 499.6 193.3 512.2c1.2 6.4 65.6 73.8 65.6 73.8z m310.2 175.5s47.8 16.1 45.4-36.1L541.4 639s-5.9-18 17.5-17.2l81.2 92.8s25.7 13.5 42.5-4.3c16.9-17.8 4-35.5 4-35.5L612 587.3s-8.8-11.2 4-20.9c12.8-9.6 23.3 8 23.3 8l76.3 91.6s22.8 17 48.2-4.1c21.3-17.7 18.9-48.8 18.9-48.8l-0.2-15.1 18.3-11.8s13.6 64.8-14.9 90.4c-28.5 25.7-71.1 16.1-71.1 16.1s-3.9 34.1-27.1 45.4c-23.3 11.2-45.8 4-45.8 4s0.8 29.7-26.5 43.4-61.8 0-61.8 0l15.5-24z m0 0" p-id="6016"></path></svg>