<?xml version="1.0" standalone="no"?><!DOCTYPE svg PUBLIC "-//W3C//DTD SVG 1.1//EN" "http://www.w3.org/Graphics/SVG/1.1/DTD/svg11.dtd"><svg t="1529917819258" class="icon" style="" viewBox="0 0 1364 1024" version="1.1" xmlns="http://www.w3.org/2000/svg" p-id="3747" xmlns:xlink="http://www.w3.org/1999/xlink" width="63.9375" height="48"><defs><style type="text/css"></style></defs><path d="M428.114073 597.904687c-32.466325-21.576999-15.930681-70.780622-14.519102-74.208744a178.665616 178.665616 0 0 0 51.825128-83.68649 45.977156 45.977156 0 0 0 25.00512-40.330839c2.823159-22.181961-4.436392-41.742418-16.333989-46.582119-6.049626-87.921229-48.397007-155.878692-137.729815-155.878693-89.131154 0-131.680189 67.957464-137.528161 155.878693-12.099252 4.839701-20.165419 24.400158-16.33399 46.582119a45.977156 45.977156 0 0 0 25.00512 40.330839A178.060654 178.060654 0 0 0 258.522896 524.300906c1.613234 3.629776 17.947223 52.631745-14.519102 74.208743-40.330839 27.42497-128.252068 33.877905-136.721544 93.567547C100.829315 742.28909 55.86043 764.87436 336.159761 766.285939S572.296822 742.28909 564.633963 691.673887c-8.469476-60.496258-95.785742-66.34423-136.721544-93.7692z m0 0M1077.843888 302.481292H643.279099a30.248129 30.248129 0 0 1 0-60.496259h434.564789a30.248129 30.248129 0 0 1 0 60.496259zM1077.843888 441.017724H643.279099a30.248129 30.248129 0 0 1 0-60.496259h434.564789a30.248129 30.248129 0 0 1 0 60.496259zM868.32518 586.813706H643.279099a30.248129 30.248129 0 0 1 0-60.496258h225.046081a30.248129 30.248129 0 0 1 0 60.496258zM806.618996 748.742024h-163.339897a30.248129 30.248129 0 1 1 0-60.496258H806.618996a30.248129 30.248129 0 0 1 0 60.496258z" fill="" p-id="3748"></path><path d="M1051.427189 975.401339H154.469331A155.677038 155.677038 0 0 1 0.002218 819.119338V156.483655A155.677038 155.677038 0 0 1 154.469331 0h977.619535a155.677038 155.677038 0 0 1 154.467114 156.483655v492.036235l-50.615203-46.178811a199.839307 199.839307 0 0 0-134.906656-52.631745 206.897204 206.897204 0 0 0-120.992517 371.648681zM154.469331 60.496258A94.979126 94.979126 0 0 0 60.498477 156.483655v662.635683a94.979126 94.979126 0 0 0 93.970854 95.987397h735.432848A267.595116 267.595116 0 0 1 1101.034121 489.011422a258.722332 258.722332 0 0 1 125.0256 32.264671V156.483655A94.979126 94.979126 0 0 0 1132.088866 60.496258z" fill="" p-id="3749"></path><path d="M1101.034121 1024a256.907444 256.907444 0 0 1-157.693581-54.043324 270.216621 270.216621 0 0 1 157.693581-483.970067 259.12564 259.12564 0 0 1 175.640803 69.167389 272.233163 272.233163 0 0 1 87.316266 200.040961A266.385191 266.385191 0 0 1 1101.034121 1024z m0-477.718787a205.888933 205.888933 0 0 0-201.654195 208.712091 208.913746 208.913746 0 0 0 81.669949 167.171328 196.814494 196.814494 0 0 0 120.992516 41.540764 205.888933 205.888933 0 0 0 201.654195-208.712092 211.736904 211.736904 0 0 0-67.755809-155.475384 198.831036 198.831036 0 0 0-134.906656-53.236707z" fill="" p-id="3750"></path><path d="M1069.979375 910.670343a30.248129 30.248129 0 0 1-19.157149-6.856243l-139.544703-113.329657a30.248129 30.248129 0 1 1 38.112643-46.985428L1068.769449 840.091375l181.488775-175.842458a30.248129 30.248129 0 0 1 41.944073 43.557306l-201.654195 194.394643a30.248129 30.248129 0 0 1-20.568727 8.469477z" fill="" p-id="3751"></path></svg>