<?xml version="1.0" standalone="no"?><!DOCTYPE svg PUBLIC "-//W3C//DTD SVG 1.1//EN" "http://www.w3.org/Graphics/SVG/1.1/DTD/svg11.dtd"><svg t="1529917791189" class="icon" style="" viewBox="0 0 1025 1024" version="1.1" xmlns="http://www.w3.org/2000/svg" p-id="2961" xmlns:xlink="http://www.w3.org/1999/xlink" width="48.046875" height="48"><defs><style type="text/css"></style></defs><path d="M1024 296H100c-52.8 0-96-43.2-96-96s43.2-96 96-96H1024v32H100c-35.2 0-64 28.8-64 64s28.8 64 64 64H1024v32z" fill="" p-id="2962"></path><path d="M913.6 996.8H117.6c-61.6 0-112-50.4-112-112V216l32-2.4c4 23.2 19.2 50.4 71.2 50.4 80.8-6.4 775.2 0 804.8 0h112v620.8c0 61.6-50.4 112-112 112zM37.6 274.4v610.4c0 44 36 80 80 80h796c44 0 80-36 80-80V296h-80c-7.2 0-726.4-6.4-802.4 0h-1.6c-33.6 0-56.8-8.8-72-21.6z" fill="" p-id="2963"></path><path d="M720.8 60c19.2-9.6 22.4-6.4 34.4-3.2 6.4 3.2 9.6 3.2 25.6 25.6L903.2 280H389.6L720.8 60z" fill="#FFFFFF" p-id="2964"></path><path d="M932 296H336.8L713.6 45.6c20.8-10.4 29.6-8.8 41.6-5.6 0.8 0 2.4 0.8 4 0.8l4.8 1.6c8.8 4 14.4 8.8 30.4 29.6l0.8 0.8L932 296z m-489.6-32h432L767.2 91.2c-12-16.8-14.4-17.6-17.6-19.2h-0.8c-0.8 0-2.4-0.8-3.2-0.8-6.4-1.6-7.2-2.4-17.6 3.2L442.4 264zM847.2 807.2H661.6c-8.8 0-16-7.2-16-16s7.2-16 16-16h185.6c8.8 0 16 7.2 16 16s-7.2 16-16 16z" fill="" p-id="2965"></path></svg>