<?xml version="1.0" standalone="no"?><!DOCTYPE svg PUBLIC "-//W3C//DTD SVG 1.1//EN" "http://www.w3.org/Graphics/SVG/1.1/DTD/svg11.dtd"><svg t="1529986409958" class="icon" style="" viewBox="0 0 1024 1024" version="1.1" xmlns="http://www.w3.org/2000/svg" p-id="2163" xmlns:xlink="http://www.w3.org/1999/xlink" width="48" height="48"><defs><style type="text/css"></style></defs><path d="M701.0304 784.5888c0-11.6736-9.216-20.8896-20.6848-20.8896H207.6672c-11.4688 0-20.6848 9.4208-20.6848 20.8896s9.216 20.8896 20.6848 20.8896h472.6784c11.4688 0 20.6848-9.4208 20.6848-20.8896z m-190.0544-129.4336c11.4688 0 20.6848-9.4208 20.6848-20.8896 0-11.6736-9.216-20.8896-20.6848-20.8896H207.6672c-11.4688 0-20.6848 9.4208-20.6848 20.8896s9.216 20.8896 20.6848 20.8896h303.3088z m-65.536-150.1184c11.4688 0 20.6848-9.4208 20.6848-20.8896 0-11.6736-9.216-21.0944-20.6848-21.0944h-237.568c-11.4688 0-20.6848 9.4208-20.6848 21.0944 0 11.6736 9.216 20.8896 20.6848 20.8896h237.568zM916.0704 57.344" p-id="2164"></path><path d="M665.1904 96.256H116.9408c-26.624 0-48.3328 21.9136-48.3328 48.9472V966.656c0 27.0336 21.7088 48.9472 48.3328 48.9472h660.0704c26.8288 0 48.3328-21.9136 48.3328-48.9472V364.3392h-41.3696V966.656c0 3.8912-3.072 6.9632-6.9632 6.9632H116.9408c-3.6864 0-6.9632-3.2768-6.9632-6.9632V145.2032c0-3.8912 3.072-6.9632 6.9632-6.9632h548.2496V96.256zM109.9776 145.2032" p-id="2165"></path><path d="M867.1232 16.9984L614.6048 269.312l88.4736 88.4736L955.392 105.472 867.1232 16.9984z m-201.9328 252.3136L867.1232 67.584l37.888 37.888-201.728 201.728-38.0928-37.888z" p-id="2166"></path><path d="M878.1824 175.7184l-13.5168-12.288-67.7888-67.584 25.8048-24.9856 13.1072 11.8784L903.168 150.1184z" p-id="2167"></path><path d="M609.4848 277.9136L577.536 395.8784l118.1696-31.3344-86.2208-86.6304z m12.0832 46.08l27.8528 28.0576-38.2976 10.0352 10.4448-38.0928z" p-id="2168"></path></svg>