<?xml version="1.0" standalone="no"?><!DOCTYPE svg PUBLIC "-//W3C//DTD SVG 1.1//EN" "http://www.w3.org/Graphics/SVG/1.1/DTD/svg11.dtd"><svg t="1529993947838" class="icon" style="" viewBox="0 0 1024 1024" version="1.1" xmlns="http://www.w3.org/2000/svg" p-id="14255" xmlns:xlink="http://www.w3.org/1999/xlink" width="48" height="48"><defs><style type="text/css"></style></defs><path d="M126.372529 832.618914V131.31909c0-3.430756 21.877012-30.948084 25.307768-30.948083H753.721021c3.421253 0 53.822961 21.886515 53.82296 25.317271v710.594228c14.122172 7.141865 33.076863 16.645346 43.982107 28.116046V125.688278c0-52.905875-59.220937-68.415555-83.549847-68.415554H165.935517c-39.662775-4.076993-83.554599 32.820269-83.554598 57.149179v751.986635c0 24.333661 40.133197 43.084028 83.549847 41.131063h361.887777v-46.818896c0-0.665244 0.175814-1.278218 0.204325-1.919703H165.935517c-3.406998 0.004752-39.562988-22.760835-39.562988-26.182088z" fill="" p-id="14256"></path><path d="M686.569429 230.834784H255.558088a18.911926 18.911926 0 0 0 0 37.828603h431.049355a18.921429 18.921429 0 0 0 18.907174-18.916677 18.935684 18.935684 0 0 0-18.945188-18.911926z m18.926181 154.450562a18.921429 18.921429 0 0 0-18.911926-18.911926H255.558088a18.911926 18.911926 0 0 0 0 37.823851h431.049355a18.921429 18.921429 0 0 0 18.888167-18.911925z m-342.956844 116.621958a18.911926 18.911926 0 0 0 0 37.8191h169.613364a18.916677 18.916677 0 0 0 18.907174-18.907174 18.916677 18.916677 0 0 0-18.907174-18.911926H362.538766z m109.698673 135.533884H351.277142a18.921429 18.921429 0 0 0-18.911926 18.907174 18.916677 18.916677 0 0 0 18.911926 18.911926h120.965048a18.916677 18.916677 0 0 0 18.911926-18.911926 18.930933 18.930933 0 0 0-18.916677-18.907174z m422.904872 193.053698h-48.410729l-94.488352-132.212417c38.88349-13.689763 66.980529-50.401708 66.980529-93.899137 0-55.124937-44.80891-99.957606-99.938599-99.957606-55.115434 0-99.919592 44.83742-99.919592 99.957606 0 43.492677 28.111295 80.209374 66.980529 93.899137l-94.507359 132.212417h-48.391722c-24.343165 0-44.134162 19.795749-44.134162 44.129411v71.090784c0 24.32891 19.800501 44.119907 44.134162 44.119907h351.68104c24.333661 0 44.124659-19.790998 44.124659-44.119907v-71.090784c0.014255-24.333661-19.781494-44.129411-44.110404-44.129411z m-245.094756-226.106802c0-38.170729 31.028863-69.266116 69.228102-69.266116 38.203991 0 69.232854 31.066877 69.232853 69.266116 0 37.952148-30.696241 68.819452-68.591368 69.190088h-1.287722c-37.84761-0.365884-68.581865-31.204677-68.581865-69.190088z m63.426227 121.012566l11.128575-0.703258 75.623945 105.806998h-161.882283l75.129763-105.10374z m197.472817 222.191369c0 3.611323-3.036362 16.13691-6.63343 16.136909h-370.041763c-3.611323 0-6.633429-12.525587-6.633429-16.136909v-74.79239c0-3.611323 3.022107-16.13691 6.633429-16.13691h370.06077c3.620826 0 6.633429 12.525587 6.63343 16.13691v74.79239h-0.019007z" fill="" p-id="14257"></path><path d="M705.733197 246.667582a27.460306 27.460306 0 0 1-27.455554 27.455555H264.073206a27.455555 27.455555 0 0 1 0-54.911109h414.204437a27.446051 27.446051 0 0 1 27.455554 27.455554zM705.733197 383.246849a27.460306 27.460306 0 0 1-27.455554 27.455555H264.073206a27.455555 27.455555 0 0 1 0-54.911109h414.204437a27.450803 27.450803 0 0 1 27.455554 27.455554z" fill="" p-id="14258"></path><path d="M705.733197 383.246849a26.053791 26.053791 0 0 1-26.044287 26.04904H262.666691a26.049039 26.049039 0 0 1 0-52.098079h417.022219a26.049039 26.049039 0 0 1 26.044287 26.049039zM604.364325 518.424353a26.053791 26.053791 0 0 1-26.044288 26.049039H268.297503a26.049039 26.049039 0 0 1 0-52.098079h310.013031a26.049039 26.049039 0 0 1 26.053791 26.04904zM520.348807 653.587601a26.039536 26.039536 0 0 1-26.049039 26.044288H280.034302a26.049039 26.049039 0 0 1 0-52.088576h214.265466a26.039536 26.039536 0 0 1 26.049039 26.044288z" fill="" p-id="14259"></path></svg>