<?xml version="1.0" standalone="no"?><!DOCTYPE svg PUBLIC "-//W3C//DTD SVG 1.1//EN" "http://www.w3.org/Graphics/SVG/1.1/DTD/svg11.dtd"><svg t="1529483199363" class="icon" style="" viewBox="0 0 1025 1024" version="1.1" xmlns="http://www.w3.org/2000/svg" p-id="5762" xmlns:xlink="http://www.w3.org/1999/xlink" width="48.046875" height="48"><defs><style type="text/css"></style></defs><path d="M998.4 371.2c-19.2-19.2-51.2-32-83.2-32H115.2c-38.4 0-64 12.8-83.2 32-25.6 19.2-32 51.2-25.6 89.6 12.8 102.4 89.6 467.2 89.6 486.4 6.4 25.6 38.4 70.4 108.8 70.4h620.8c70.4 0 102.4-44.8 108.8-76.8 0-12.8 76.8-384 89.6-486.4 6.4-32-6.4-64-25.6-83.2z m-44.8 83.2c-12.8 102.4-89.6 480-89.6 480s-6.4 25.6-44.8 25.6H204.8c-38.4 0-44.8-19.2-44.8-25.6 0-6.4-76.8-384-89.6-480 0-12.8 0-32 6.4-44.8 6.4-12.8 25.6-12.8 38.4-12.8h806.4c12.8 0 25.6 0 38.4 12.8 0 12.8 0 32-6.4 44.8z" p-id="5763"></path><path d="M275.2 492.8c-19.2 0-38.4 6.4-51.2 12.8-12.8 12.8-19.2 32-19.2 44.8 0 19.2 6.4 32 19.2 44.8 12.8 12.8 32 19.2 51.2 19.2s32-6.4 44.8-19.2c12.8-12.8 19.2-25.6 19.2-44.8 0-19.2-6.4-32-19.2-44.8-12.8-6.4-32-12.8-44.8-12.8zM230.4 300.8c19.2 0 32-12.8 32-32C262.4 153.6 371.2 57.6 512 57.6c134.4 0 249.6 96 249.6 211.2 0 19.2 12.8 32 32 32s32-12.8 32-32C825.6 121.6 684.8 0 512 0S198.4 121.6 198.4 268.8c0 19.2 12.8 32 32 32zM755.2 492.8c-19.2 0-32 6.4-44.8 19.2-12.8 12.8-19.2 25.6-19.2 44.8 0 19.2 6.4 32 19.2 44.8 12.8 12.8 32 19.2 44.8 19.2 19.2 0 32-6.4 44.8-19.2 12.8-12.8 19.2-25.6 19.2-44.8 0-19.2-6.4-32-19.2-44.8-6.4-12.8-25.6-19.2-44.8-19.2z" p-id="5764"></path></svg>