<?xml version="1.0" standalone="no"?><!DOCTYPE svg PUBLIC "-//W3C//DTD SVG 1.1//EN" "http://www.w3.org/Graphics/SVG/1.1/DTD/svg11.dtd"><svg t="1529483109360" class="icon" style="" viewBox="0 0 1040 1024" version="1.1" xmlns="http://www.w3.org/2000/svg" p-id="4843" xmlns:xlink="http://www.w3.org/1999/xlink" width="48.75" height="48"><defs><style type="text/css"></style></defs><path d="M1025.241194 377.903314l-0.12163-0.12163L550.642311 38.313339c-4.257038-4.135408-9.608742-7.541038-13.014373-9.365483C520.234899 18.244447 495.54408 24.2043 482.529708 42.205488l-465.719919 335.454567c-8.392446 5.716593-14.109039 14.595558-16.055114 25.055707-2.310963 12.527854 0.729778 26.150374 8.514076 37.461931 7.662668 11.189928 19.339114 18.730966 31.988597 20.67704 10.581779 1.702815 20.67704-0.729778 28.704597-6.81126l24.2043-19.095855v519.236964c0 25.420596 21.163559 46.949044 46.219265 46.949044s46.219266-21.528448 46.219266-46.949044V367.564794l332.657086-237.056183 335.941085 240.340183v581.754603c0 25.907115 20.79867 46.949044 46.219266 46.949044s46.219266-21.041929 46.219266-46.949044V438.596508l22.623115 15.933484c19.582373 13.257632 45.367858 7.05452 60.085045-14.352299 14.838817-20.920299 12.284594-48.895118-5.108445-62.274379z" p-id="4844"></path><path d="M388.509991 902.127093c-1.946074-27.245041-10.21689-35.637487-35.637487-35.637486h-58.747119c-27.366671 0-35.637487 8.392446-35.637487 36.124005v61.544602c0 27.73156 8.392446 36.124005 35.637487 36.124005h58.747119c27.366671 0 35.637487-8.392446 35.637487-36.124005v-62.031121zM388.509991 699.127212c-1.946074-26.028745-10.33852-33.934672-35.637487-33.934671h-58.747119c-27.366671 0-35.637487 8.392446-35.637487 36.124005v59.841786c0 27.73156 8.392446 36.124005 35.637487 36.124006h58.747119c27.366671 0 35.637487-8.392446 35.637487-36.124006v-62.03112zM584.576982 902.127093c-1.946074-27.245041-10.21689-35.637487-35.637486-35.637486h-58.74712c-27.366671 0-35.637487 8.392446-35.637487 36.124005v61.544602c0 27.73156 8.392446 36.124005 35.637487 36.124005h58.74712c27.366671 0 35.637487-8.392446 35.637486-36.124005v-62.031121zM780.522344 902.127093c-1.946074-27.245041-10.21689-35.637487-35.637487-35.637486h-58.868749c-27.366671 0-35.637487 8.392446-35.637487 36.124005v61.544602c0 27.73156 8.392446 36.124005 35.637487 36.124005h58.868749c27.366671 0 35.637487-8.392446 35.637487-36.124005v-62.031121zM584.576982 699.127212c-1.946074-26.028745-10.21689-33.934672-35.637486-33.934671h-58.74712c-27.366671 0-35.637487 8.392446-35.637487 36.124005v59.841786c0 27.73156 8.392446 36.124005 35.637487 36.124006h58.74712c27.366671 0 35.637487-8.392446 35.637486-36.124006v-62.03112zM388.509991 499.77622c-1.824445-28.339708-9.122224-35.637487-35.637487-35.637486h-58.747119c-27.366671 0-35.637487 8.514075-35.637487 36.245635V561.92897c0 27.73156 8.392446 36.124005 35.637487 36.124005h58.747119c27.366671 0 35.637487-8.392446 35.637487-36.124005v-62.15275z" p-id="4845"></path></svg>