<?xml version="1.0" standalone="no"?><!DOCTYPE svg PUBLIC "-//W3C//DTD SVG 1.1//EN" "http://www.w3.org/Graphics/SVG/1.1/DTD/svg11.dtd"><svg t="1529917764701" class="icon" style="" viewBox="0 0 1024 1024" version="1.1" xmlns="http://www.w3.org/2000/svg" p-id="2085" xmlns:xlink="http://www.w3.org/1999/xlink" width="48" height="48"><defs><style type="text/css"></style></defs><path d="M832 874.475a21.333 21.333 0 0 1-21.376 21.546H213.376A21.483 21.483 0 0 1 192 874.453v-213.12h-42.667v213.12a64.15 64.15 0 0 0 64.043 64.214h597.248a64 64 0 0 0 64.043-64.214v-213.12H832v213.12z m-8-303.104a117.056 117.056 0 0 1-137.621-47.574l-40.555-63.872-33.685 67.712a111.168 111.168 0 0 1-100.096 62.08 111.317 111.317 0 0 1-100.139-62.08l-33.707-67.712-40.512 63.872a116.779 116.779 0 0 1-137.706 47.574c-57.43-26.091-86.464-93.867-64.875-153.686l40.49-112.277 37.42-147.03c0.938-3.797 7.68-9.045 11.605-9.045h576.405c4.01 0 10.645 5.142 11.605 9.046l38.315 153.258 37.93 105.75c21.59 59.861-7.466 127.722-64.874 153.984M929.003 402.9l-36.672-101.61-38.315-153.259c-5.696-22.87-29.44-41.365-52.992-41.365H224.597c-23.552 0-47.296 18.624-52.992 41.386l-34.858 139.414-1.28 3.434L94.955 403.2c-29.334 81.365 10.666 173.184 89.408 207.723 70.976 25.984 149.76-1.878 189.354-64.278a154.56 154.56 0 0 0 138.326 85.718 154.39 154.39 0 0 0 138.304-85.718 159.872 159.872 0 0 0 189.333 64.278c78.72-34.731 118.741-126.507 89.323-208" fill="#333333" p-id="2086"></path><path d="M746.645 362.667h-469.29a21.333 21.333 0 1 0 0 42.666h469.29a21.333 21.333 0 1 0 0-42.666" fill="#333333" p-id="2087"></path></svg>